<?xml version="1.0" standalone="no"?>
<!DOCTYPE svg PUBLIC "-//W3C//DTD SVG 20010904//EN" "http://www.w3.org/TR/2001/REC-SVG-20010904/DTD/svg10.dtd">
<svg version="1.0" xmlns="http://www.w3.org/2000/svg" width="538.000000pt" height="552.000000pt" viewBox="0 0 538.000000 552.000000" preserveAspectRatio="xMidYMid meet">

	<g transform="translate(0.000000,552.000000) scale(0.100000,-0.100000)" fill="#000000" stroke="none">
		<path d="M3493 5480 c-35 -26 -48 -42 -58 -70 -1 -3 -5 -13 -10 -23 -23 -54
26 -165 84 -190 93 -38 162 -22 217 50 56 74 33 184 -51 242 -49 33 -130 29
-182 -9z" />
		<path d="M3987 5436 c-85 -78 -38 -209 77 -215 57 -2 100 20 121 65 21 45 19
79 -10 124 -31 49 -52 61 -109 58 -36 -1 -53 -8 -79 -32z" />
		<path d="M2583 5136 c1 -5 -36 -15 -82 -23 -107 -19 -238 -63 -310 -105 -31
-18 -92 -69 -136 -113 -87 -87 -131 -161 -223 -375 -27 -63 -166 -376 -310
-695 -143 -319 -487 -1088 -765 -1710 -278 -621 -549 -1227 -602 -1345 -53
-118 -106 -238 -117 -267 -10 -29 -24 -55 -29 -58 -33 -21 25 -183 93 -261 42
-48 135 -108 201 -130 29 -9 57 -21 63 -25 6 -5 243 -8 529 -7 l519 3 413
1075 c228 591 417 1091 420 1111 4 30 -10 71 -86 246 -50 116 -91 221 -91 234
0 37 37 89 75 105 51 21 1039 21 1090 0 38 -16 75 -68 75 -105 0 -13 -41 -118
-91 -234 -76 -175 -90 -216 -86 -246 3 -20 192 -520 420 -1111 l413 -1075 508
-2 c313 -2 514 1 524 7 9 6 43 19 74 31 127 45 239 149 274 253 9 25 20 48 25
52 15 9 11 139 -6 171 -8 15 -43 91 -79 168 -159 347 -824 1798 -1234 2695
-595 1301 -601 1315 -652 1390 -78 115 -162 184 -303 250 -85 40 -220 80 -268
80 -16 0 -32 6 -36 13 -9 14 -212 18 -210 3z m554 -1728 c24 -20 42 -70 36
-101 -8 -39 -57 -77 -100 -77 -69 0 -117 86 -83 150 25 46 107 61 147 28z" />
		<path d="M3893 5086 c-106 -48 -86 -214 28 -232 44 -7 102 16 125 50 21 33 23
95 5 130 -29 53 -102 77 -158 52z" />
		<path d="M2826 1585 c-43 -22 -55 -44 -56 -96 0 -80 70 -126 143 -95 37 15 67
58 67 96 0 37 -30 81 -65 96 -43 18 -53 17 -89 -1z" />
		<path d="M2442 1160 c-47 -29 -72 -76 -72 -135 0 -93 62 -155 155 -155 93 0
155 62 155 155 0 93 -62 155 -155 155 -32 0 -62 -7 -83 -20z" />
	</g>
</svg>